<svg xmlns="http://www.w3.org/2000/svg" viewBox="0 0 1280 720"><rect width="1280" height="720" fill="#FFFAFB"/><circle cx="640" cy="340" r="220" fill="none" stroke="#FFD93D" stroke-width="3.0" stroke-opacity="0.3"/><circle cx="640" cy="340" r="200" fill="none" stroke="#FF6B8A" stroke-width="2.5" stroke-opacity="0.25"/><circle cx="640" cy="340" r="180" fill="none" stroke="#00D2D3" stroke-width="2.0" stroke-opacity="0.19999999999999998"/><circle cx="640" cy="340" r="160" fill="none" stroke="#A29BFE" stroke-width="1.5" stroke-opacity="0.14999999999999997"/><circle cx="200" cy="150" r="40" fill="#FFD93D" fill-opacity="0.25"/><circle cx="1080" cy="580" r="50" fill="#FF6B8A" fill-opacity="0.25"/><circle cx="150" cy="600" r="30" fill="#00D2D3" fill-opacity="0.25"/><circle cx="1100" cy="150" r="25" fill="#A29BFE" fill-opacity="0.25"/><polyline points="0,600 40,580 80,600 120,580 160,600 200,580 240,600 280,580 320,600 360,580 400,600 440,580 480,600 520,580 560,600 600,580 640,600" fill="none" stroke="#2D3436" stroke-width="2" stroke-opacity="0.1"/><rect x="290" y="220" width="700" height="120" fill="#FF6B8A" rx="16"/><text x="640" y="285" text-anchor="middle" font-family="Arial Black,Microsoft YaHei,sans-serif" font-size="48" fill="#FFFAFB">THANK YOU</text><rect x="340" y="360" width="600" height="50" fill="#2D3436" rx="10"/><text x="640" y="392" text-anchor="middle" font-family="Microsoft YaHei,PingFang SC,sans-serif" font-size="20" fill="#FFD93D">校园搭子推荐系统</text><text x="640" y="450" text-anchor="middle" font-family="Microsoft YaHei,PingFang SC,sans-serif" font-size="18" fill="#636E72">基于MBTI心理特质与微观消费特征的智能匹配</text><rect x="460" y="480" width="360" height="4" fill="#00D2D3"/><text x="640" y="515" text-anchor="middle" font-family="Microsoft YaHei,PingFang SC,sans-serif" font-size="16" fill="#B2BEC3">机器学习课程大作业 | 2026.06</text><text x="640" y="670" text-anchor="middle" font-family="Microsoft YaHei,PingFang SC,sans-serif" font-size="15" fill="#B2BEC3">Questions and Discussion</text><rect x="0" y="700" width="1280" height="20" fill="#2D3436"/><text x="1240" y="700" text-anchor="end" font-family="Arial Black, Microsoft YaHei, sans-serif" font-size="14" fill="#B2BEC3">14 / 14</text></svg>